name D:\+GitRepos+\flash-running\Simulations\OCP\..\results\predictiveSim\predictiveSim_11-Nov-2020_kinematics.mot
datacolumns 32
datarows 17
range 1.76961659 1.86399614
endheader
time	pelvis_tilt	pelvis_list	pelvis_rotation	pelvis_tx	pelvis_ty	pelvis_tz	hip_flexion_l	hip_adduction_l	hip_rotation_l	hip_flexion_r	hip_adduction_r	hip_rotation_r	knee_angle_l	knee_angle_r	ankle_angle_l	ankle_angle_r	subtalar_angle_l	subtalar_angle_r	lumbar_extension	lumbar_bending	lumbar_rotation	arm_flex_l	arm_add_l	arm_rot_l	arm_flex_r	arm_add_r	arm_rot_r	elbow_flex_l	elbow_flex_r	pro_sup_l	pro_sup_r	
          1.76961659	        -11.60564293	          0.27286003	          1.66083789	          6.19365805	          0.98737482	         -0.00793027	         24.93789594	          6.36047939	         -0.21039528	         38.36144101	          7.46362538	          9.42610153	        -15.93342985	        -61.56000366	         -9.65449006	         -6.61369105	          8.47235070	          3.85674677	         -2.04459277	         -1.61038229	          0.44925308	         -0.64284168	          3.09534063	        -11.92908198	         -9.78578462	        -10.85776816	         -2.24292258	        149.03977631	         66.28422171	         86.51662706	         86.51662706	
          1.77551531	        -11.32248037	          0.24302136	          1.71293845	          6.21358083	          0.98381205	         -0.00809285	         24.76875908	          6.48678578	         -0.20075554	         38.61219786	          7.22361408	          9.51845751	        -16.41943065	        -60.83598386	         -9.58222328	         -6.26306221	          7.89328083	          3.81514782	         -2.29583692	         -1.57288121	          0.68033616	          1.40739951	          4.19942530	        -11.22771353	         -8.86438230	        -10.81402761	         -2.60634901	        149.89062068	         62.03920351	         86.51662706	         86.51662706	
          1.78141403	        -11.03380704	          0.22383735	          1.75807205	          6.23358525	          0.97992932	         -0.00825424	         24.51781762	          6.61521908	         -0.13742972	         38.92785699	          6.93351491	          9.57152245	        -17.36749692	        -59.99712892	         -8.91978364	         -5.90340439	          7.17737392	          3.76556255	         -2.53179129	         -1.54571568	          0.89306637	          3.47164237	          5.32781517	        -10.53981125	         -7.83990198	        -10.75608839	         -2.95755145	        150.66488584	         57.58794943	         86.51662706	         86.51662706	
          1.78731275	        -10.72910898	          0.21261473	          1.80694136	          6.25363650	          0.97577025	         -0.00840458	         24.25709754	          6.74723537	         -0.07207839	         39.29016605	          6.61725137	          9.64615355	        -19.26708682	        -59.06332762	         -7.79436516	         -5.55368694	          6.53655478	          3.70916607	         -2.77263813	         -1.52960103	          1.08026943	          5.56136036	          6.47315119	         -9.86426907	         -6.69772624	        -10.68008545	         -3.30115274	        151.35906298	         52.90533950	         86.51662706	         86.51662706	
          1.79321147	        -10.41835188	          0.21025053	          1.85018213	          6.27374090	          0.97143457	         -0.00856600	         23.90578910	          6.91681523	          0.04832414	         39.68748872	          6.25511229	          9.69457542	        -21.68749005	        -58.01547672	         -6.15502862	         -5.21788822	          6.02506333	          3.65285894	         -3.00436996	         -1.52004220	          1.23913169	          7.66101846	          7.63051427	         -9.21816556	         -5.41077096	        -10.58965550	         -3.62303631	        151.95955871	         47.92378115	         86.51662706	         86.51662706	
          1.79911020	        -10.11922769	          0.20697140	          1.87384239	          6.29392877	          0.96702001	         -0.00874860	         23.33899401	          7.12819670	          0.28286930	         40.10972002	          5.82721779	          9.62856776	        -23.85804323	        -56.81889584	         -4.10267897	         -4.88059979	          5.47111815	          3.60526786	         -3.19855634	         -1.50057939	          1.36791933	          9.74475096	          8.79235932	         -8.62456204	         -3.95147809	        -10.48890104	         -3.90511542	        152.45441495	         42.56484520	         86.51662706	         86.51662706	
          1.80500892	         -9.83152012	          0.19464383	          1.88203653	          6.31417610	          0.96257376	         -0.00892971	         22.58980713	          7.35563827	          0.59801187	         40.54209165	          5.34877015	          9.44754473	        -25.74304464	        -55.47301464	         -2.01201640	         -4.54198477	          4.85986698	          3.57322379	         -3.35915970	         -1.46582363	          1.46344316	         11.81491519	          9.94522352	         -8.08875500	         -2.30160830	        -10.37334364	         -4.15038067	        152.84230077	         36.78701037	         86.51662706	         86.51662706	
          1.81090764	         -9.55154468	          0.17385279	          1.88157154	          6.33444447	          0.95813282	         -0.00909440	         21.71373920	          7.58262485	          0.94700287	         40.97234237	          4.83547861	          9.17939161	        -27.40720344	        -53.99111385	         -0.00143052	         -4.21071820	          4.23327891	          3.56317181	         -3.49780345	         -1.41889196	          1.52116127	         13.87835233	         11.07514312	         -7.61520990	         -0.44677849	        -10.23939755	         -4.36673030	        153.12524645	         30.56573116	         86.51662706	         86.51662706	
          1.81680636	         -9.27775137	          0.14717269	          1.87824052	          6.35469558	          0.95372403	         -0.00923518	         20.76197153	          7.79761464	          1.29116155	         41.39507044	          4.30222970	          8.85632511	        -28.90850824	        -52.39393613	          1.83394158	         -3.90170071	          3.61930550	          3.58216544	         -3.62452968	         -1.36322921	          1.53911147	         15.94081871	         12.16983282	         -7.20743017	          1.61695012	        -10.08785379	         -4.56515025	        153.30692772	         23.90089876	         86.51662706	         86.51662706	
          1.82270508	         -9.01158255	          0.11910130	          1.87409474	          6.37492319	          0.94938455	         -0.00935125	         19.74975022	          7.99753316	          1.61824135	         41.80674052	          3.75524344	          8.48947418	        -30.26306953	        -50.70062637	          3.47612681	         -3.63411063	          3.03900141	          3.63893486	         -3.74134230	         -1.30303962	          1.51941532	         17.99850874	         13.21747814	         -6.86875167	          3.87616845	         -9.92479171	         -4.75269048	        153.39048995	         16.82300123	         86.51662706	         86.51662706	
          1.82860381	         -8.75988530	          0.09202357	          1.86978132	          6.39514427	          0.94514598	         -0.00943712	         18.67408860	          8.17490112	          1.93049726	         42.21057181	          3.19989973	          8.07881560	        -31.44743164	        -48.93282058	          4.89486451	         -3.42718315	          2.51804964	          3.74345402	         -3.84023519	         -1.24109084	          1.46591112	         20.04023932	         14.20660718	         -6.60134871	          6.29319936	         -9.76122132	         -4.92323850	        153.38040179	          9.41376713	         86.51662706	         86.51662706	
          1.83450253	         -8.53019213	          0.06481208	          1.86615469	          6.41536402	          0.94105789	         -0.00948895	         17.54201928	          8.32258663	          2.23426529	         42.61326657	          2.64669207	          7.63238852	        -32.44461264	        -47.11228402	          6.03779849	         -3.29917786	          2.05838175	          3.90325571	         -3.91554675	         -1.17587980	          1.38381963	         22.05303166	         15.12693527	         -6.40491879	          8.80613934	         -9.61224218	         -5.04929888	        153.28257664	          1.82276213	         86.51662706	         86.51662706	
          1.84040125	         -8.33083184	          0.03467957	          1.86259469	          6.43559726	          0.93719944	         -0.00950816	         16.35194105	          8.43740248	          2.53474556	         43.01914885	          2.10449338	          7.15164453	        -33.24043053	        -45.25115665	          6.92636621	         -3.25050245	          1.65669435	          4.12112536	         -3.96048312	         -1.10330550	          1.28210184	         24.01670842	         15.96934036	         -6.27567947	         11.32901684	         -9.49010022	         -5.08309066	        153.10289661	         -5.74520333	         86.51662706	         86.51662706	
          1.84629997	         -8.17355127	         -0.00388185	          1.85955272	          6.45585716	          0.93363648	         -0.00949361	         15.10397981	          8.51040549	          2.81843924	         43.45191760	          1.58655918	          6.63756565	        -33.81454691	        -43.39382374	          7.58099883	         -3.26550920	          1.31164432	          4.39687371	         -3.96498909	         -1.01643435	          1.16362915	         25.90760464	         16.72496035	         -6.21186066	         13.77253698	         -9.39464865	         -4.97253845	        152.85498649	        -13.07425464	         86.51662706	         86.51662706	
          1.85219869	         -8.06822273	         -0.05900530	          1.85692216	          6.47615721	          0.93042543	         -0.00944353	         13.80377835	          8.52994189	          3.06991625	         43.93850453	          1.10971579	          6.09370547	        -34.15692139	        -41.59450610	          8.01531007	         -3.31704259	          1.01957259	          4.72692079	         -3.92066616	         -0.90493891	          1.02768433	         27.70127350	         17.38627180	         -6.21295844	         16.06530169	         -9.31386678	         -4.69518174	        152.55754581	        -19.99178529	         86.51662706	         86.51662706	
          1.85809742	         -8.01973960	         -0.13675439	          1.85368083	          6.49652094	          0.92762044	         -0.00935824	         12.46188941	          8.48798564	          3.27415944	         44.48437844	          0.68548672	          5.52533201	        -34.27572998	        -39.87268592	          8.24207166	         -3.38324547	          0.77562186	          5.10502368	         -3.82227989	         -0.76093879	          0.87407270	         29.37373352	         17.94777181	         -6.27578119	         18.16135298	         -9.23183581	         -4.26729292	        152.22950480	        -26.39367442	         86.51662706	         86.51662706	
          1.86399614	         -8.03375907	         -0.24191846	          1.84973532	          6.51697259	          0.92524600	         -0.00923720	         11.09265683	          8.37487624	          3.41184129	         45.08873955	          0.32043909	          4.93707838	        -34.18803567	        -38.23173542	          8.28756377	         -3.45209853	          0.59909419	          5.52545677	         -3.66246074	         -0.57889878	          0.70001650	         30.90432234	         18.40665204	         -6.39569031	         20.04091533	         -9.13556786	         -3.72150853	        151.89133961	        -32.24306286	         86.51662706	         86.51662706	
